<svg xmlns="http://www.w3.org/2000/svg" version="1.1" xmlns:xlink="http://www.w3.org/1999/xlink" width="200" height="200"><svg xmlns="http://www.w3.org/2000/svg" version="1.1" xmlns:xlink="http://www.w3.org/1999/xlink" width="200" height="200"><svg xmlns="http://www.w3.org/2000/svg" version="1.1" xmlns:xlink="http://www.w3.org/1999/xlink" viewBox="0 0 200 200"><rect width="200" height="200" fill="url('#gradient')"></rect><defs><linearGradient id="gradient" gradientTransform="rotate(122 0.5 0.5)"><stop offset="0%" stop-color="#e2e1ba"></stop><stop offset="100%" stop-color="#fff8ea"></stop></linearGradient></defs><g><g fill="#acc6ca" transform="matrix(5.463845446182153,0,0,5.463845446182153,7.139879501140115,138.84731671834277)" stroke="#5aa3a6" stroke-width="0.2"><path d="M4.50-14.22L4.50-2.64L10.47-2.64L10.47 0L1.07 0L1.07-14.22L4.50-14.22ZM20.73-8.57L20.73-6.03L15.34-6.03L15.34-2.64L21.71-2.64L21.71 0L11.91 0L11.91-14.22L21.73-14.22L21.73-11.57L15.34-11.57L15.34-8.57L20.73-8.57ZM31.92-8.57L31.92-6.03L26.53-6.03L26.53-2.64L32.90-2.64L32.90 0L23.11 0L23.11-14.22L32.92-14.22L32.92-11.57L26.53-11.57L26.53-8.57L31.92-8.57Z"></path></g></g></svg></svg><style>@media (prefers-color-scheme: light) { :root { filter: contrast(1) brightness(1); } }
@media (prefers-color-scheme: dark) { :root { filter: none; } }
</style></svg>